<svg width="35" height="35" viewBox="0 0 35 35" fill="none" xmlns="http://www.w3.org/2000/svg">
<g clip-path="url(#clip0)">
<path d="M1.80849 35.0001C1.34745 35.0001 0.886412 34.8247 0.536129 34.4718C-0.167072 33.7686 -0.167072 32.6285 0.536129 31.9253L31.9341 0.527401C32.6373 -0.1758 33.7774 -0.1758 34.4806 0.527401C35.1838 1.2306 35.1838 2.37067 34.4806 3.07431L3.08304 34.4718C2.73012 34.8225 2.26908 35.0001 1.80849 35.0001Z" fill="#2196F3"/>
<path d="M33.2086 35.0001C32.7476 35.0001 32.287 34.8247 31.9363 34.4718L0.536129 3.07431C-0.167072 2.37067 -0.167072 1.2306 0.536129 0.527401C1.23933 -0.1758 2.3794 -0.1758 3.08304 0.527401L34.4806 31.9253C35.1838 32.6285 35.1838 33.7686 34.4806 34.4718C34.1276 34.8225 33.667 35.0001 33.2086 35.0001Z" fill="#2196F3"/>
</g>
<defs>
<clipPath id="clip0">
<rect width="35" height="35" fill="white"/>
</clipPath>
</defs>
</svg>
