<svg width="35" height="35" viewBox="0 0 35 35" fill="none" xmlns="http://www.w3.org/2000/svg">
<path d="M30.9896 0H4.01042C1.79813 0 0 1.79813 0 4.01042V30.9896C0 33.2019 1.79813 35 4.01042 35H30.9896C33.2019 35 35 33.2019 35 30.9896V4.01042C35 1.79813 33.2019 0 30.9896 0Z" fill="#2196F3"/>
<path d="M30.9896 35H4.01042C1.79813 35 0 33.2019 0 30.9896V4.01042C0 1.79813 1.79813 0 4.01042 0H30.9896C33.2019 0 35 1.79813 35 4.01042V30.9896C35 33.2019 33.2019 35 30.9896 35ZM4.01042 2.1875C3.00563 2.1875 2.1875 3.00563 2.1875 4.01042V30.9896C2.1875 31.9944 3.00563 32.8125 4.01042 32.8125H30.9896C31.9944 32.8125 32.8125 31.9944 32.8125 30.9896V4.01042C32.8125 3.00563 31.9944 2.1875 30.9896 2.1875H4.01042Z" fill="#2196F3"/>
<path d="M23.6978 12.3958H11.302C10.6983 12.3958 10.2083 11.9058 10.2083 11.3021C10.2083 10.6983 10.6983 10.2083 11.302 10.2083H23.6978C24.3016 10.2083 24.7916 10.6983 24.7916 11.3021C24.7916 11.9058 24.3016 12.3958 23.6978 12.3958Z" fill="white"/>
<path d="M23.6978 18.5938H11.302C10.6983 18.5938 10.2083 18.1038 10.2083 17.5C10.2083 16.8963 10.6983 16.4062 11.302 16.4062H23.6978C24.3016 16.4062 24.7916 16.8963 24.7916 17.5C24.7916 18.1038 24.3016 18.5938 23.6978 18.5938Z" fill="white"/>
<path d="M23.6978 24.7917H11.302C10.6983 24.7917 10.2083 24.3017 10.2083 23.6979C10.2083 23.0942 10.6983 22.6042 11.302 22.6042H23.6978C24.3016 22.6042 24.7916 23.0942 24.7916 23.6979C24.7916 24.3017 24.3016 24.7917 23.6978 24.7917Z" fill="white"/>
</svg>
